<svg xmlns="http://www.w3.org/2000/svg" viewBox="0 0 957.47 929.19"><defs><style>.cls-1{fill:#ed2224;}.cls-1,.cls-10,.cls-11,.cls-12,.cls-13,.cls-14,.cls-2,.cls-3,.cls-4,.cls-5,.cls-6,.cls-7,.cls-8,.cls-9{fill-rule:evenodd;}.cls-2{fill:#9f1d24;}.cls-3{fill:#c42128;}.cls-4{fill:#c42229;}.cls-5{fill:#d7d8d7;}.cls-6{fill:#acacad;}.cls-7{fill:#727374;}.cls-8{fill:#505150;}.cls-9{fill:#f4e2c5;}.cls-10{fill:#eccf9d;}.cls-11{fill:#e2bd80;}.cls-12{fill:#a89474;}.cls-13{fill:#ac9877;}.cls-14{fill:#9a8667;}</style></defs><g id="Layer_2" data-name="Layer 2"><g id="Layer_1-2" data-name="Layer 1"><polygon class="cls-1" points="403.65 553.69 671.81 289.44 266.6 54.11 2.33 320.9 403.65 553.69"/><polygon class="cls-1" points="266.6 54.11 556.03 0 957.47 234.06 671.81 289.44 266.6 54.11"/><polygon class="cls-2" points="403.65 553.69 669.86 287.48 957.47 234.06 403.65 553.69"/><polygon class="cls-3" points="53.29 350.46 53.29 674.91 407.59 880.99 407.59 552.07 403.65 553.69 53.29 350.46"/><polygon class="cls-4" points="407.59 880.99 407.59 552.07 906.14 263.69 906.14 594.01 867.95 615.72 867.95 316.45 448.55 558.74 448.55 856.99 407.59 880.99"/><polygon class="cls-5" points="906.14 560.27 957.47 590.94 404.58 912.69 0 678.36 53.29 640.46 53.29 674.91 407.59 880.99 448.55 856.99 867.95 615.72 906.14 594.01 906.14 560.27"/><polygon class="cls-6" points="957.47 590.94 957.47 609.15 404.56 929.19 0 695.53 0 678.36 404.58 912.69 957.47 590.94"/><polygon class="cls-7" points="448.55 856.99 448.55 558.74 867.95 316.45 867.95 615.72 448.55 856.99"/><polygon class="cls-8" points="867.95 569.63 642.38 446.76 867.95 316.45 867.95 569.63"/><polygon class="cls-9" points="632.1 452.7 690.67 486.26 781.1 434.65 723.63 399.83 632.1 452.7"/><polygon class="cls-10" points="690.67 486.26 690.67 571.41 781.1 485.05 781.1 434.65 690.67 486.26"/><polyline class="cls-11" points="690.67 571.41 605.92 522.46 605.92 467.83 632.1 452.7 690.67 486.26"/><polygon class="cls-12" points="743.38 411.79 653.49 464.96 653.49 487.86 633.77 475.77 635.02 454.38 726.3 401.44 743.38 411.79"/><polygon class="cls-9" points="781.1 485.05 846.15 520.78 778.64 560.27 714.5 522.66 781.1 485.05"/><polygon class="cls-10" points="778.64 560.27 778.64 629.36 846.15 590.94 846.15 520.78 778.64 560.27"/><polyline class="cls-11" points="778.64 629.36 719 596.45 713.58 543.69 714.5 522.66 778.64 560.27"/><polygon class="cls-13" points="803.4 497.3 735.88 535.2 735.88 552.01 749.39 560.27 750.07 543.52 816.73 504.62 803.4 497.3"/><polygon class="cls-9" points="640.82 500.6 726.61 550.9 635.23 602.87 550.56 553.69 640.82 500.6"/><polygon class="cls-11" points="550.56 553.69 550.56 646.74 634.95 695.92 635.23 602.87 550.56 553.69"/><polygon class="cls-10" points="726.61 550.9 726.61 643.95 634.95 695.92 635.23 602.87 726.61 550.9"/><polygon class="cls-14" points="670.84 518.2 579.36 570.42 579.36 592.25 597.79 602.87 598.34 581.44 688.57 528.6 670.84 518.2"/></g></g></svg>